<svg xmlns="http://www.w3.org/2000/svg" id="Layer_1" data-name="Layer 1" viewBox="19.93 89.83 201.46 103.28"><defs><style>.cls-1{fill:#63adf2;}</style></defs><path class="cls-1" d="M42.52,125.42v27a15.23,15.23,0,0,1-.72,4.79A10.51,10.51,0,0,1,39.65,161a9.72,9.72,0,0,1-3.55,2.48,12.57,12.57,0,0,1-4.86.88H24.79v17.27a7.73,7.73,0,0,0,1.66,5,5.8,5.8,0,0,0,4.79,2.06A5.45,5.45,0,0,0,36,186.37a9.7,9.7,0,0,0,1.66-5.73l4.82-.72a18.08,18.08,0,0,1-.72,5.21,12.2,12.2,0,0,1-2.11,4.18,10,10,0,0,1-3.52,2.77,11.26,11.26,0,0,1-4.86,1,12.3,12.3,0,0,1-4.92-.92,10,10,0,0,1-3.56-2.51,10.51,10.51,0,0,1-2.15-3.78,15,15,0,0,1-.71-4.72V137.35a15.23,15.23,0,0,1,.71-4.79,10.51,10.51,0,0,1,2.15-3.78,9.67,9.67,0,0,1,3.56-2.48,12.86,12.86,0,0,1,4.92-.88Zm-11.28,4.37a5.77,5.77,0,0,0-4.79,2.09A7.88,7.88,0,0,0,24.79,137v23h6.45A5.78,5.78,0,0,0,36,158a7.78,7.78,0,0,0,1.66-5.08V129.79Z"/><path class="cls-1" d="M50.34,191.78V89.83h4.89v102Z"/><path class="cls-1" d="M94.6,101v5q0,7.83-.49,14a93.14,93.14,0,0,1-1.5,11.21A45.45,45.45,0,0,1,90,140a31.3,31.3,0,0,1-3.91,6.85l10.37,44.91H91.21L82.15,151a34.85,34.85,0,0,1-5.28,3.75,52.38,52.38,0,0,1-6.32,3.09v33.9H65.66V101h4.89v51.56c1.21-.52,2.54-1.14,4-1.86a20.68,20.68,0,0,0,4.27-2.9,25.6,25.6,0,0,0,4.11-4.66A29.08,29.08,0,0,0,86.39,136a57.18,57.18,0,0,0,2.41-10.29,96.44,96.44,0,0,0,.91-14.25V101Z"/><path class="cls-1" d="M101.71,191.78v-27a15.28,15.28,0,0,1,.71-4.79,10.68,10.68,0,0,1,2.15-3.78,9.65,9.65,0,0,1,3.56-2.47,12.49,12.49,0,0,1,4.85-.88h6.46V135.59a7.76,7.76,0,0,0-1.67-5.05,5.78,5.78,0,0,0-4.79-2,5.43,5.43,0,0,0-4.72,2.34,9.68,9.68,0,0,0-1.66,5.74l-4.83.72a18.19,18.19,0,0,1,.72-5.22,12.07,12.07,0,0,1,2.12-4.17,9.63,9.63,0,0,1,3.52-2.77,11.18,11.18,0,0,1,4.85-1,12.31,12.31,0,0,1,4.92.91,10.11,10.11,0,0,1,3.56,2.51,10.68,10.68,0,0,1,2.15,3.78,15,15,0,0,1,.72,4.73v43.8a15.19,15.19,0,0,1-.72,4.79,10.64,10.64,0,0,1-2.15,3.79,9.65,9.65,0,0,1-3.56,2.47,12.67,12.67,0,0,1-4.92.88ZM113,187.41a5.75,5.75,0,0,0,4.79-2.08,7.91,7.91,0,0,0,1.67-5.09v-23H113a5.77,5.77,0,0,0-4.72,2,7.75,7.75,0,0,0-1.66,5.09v23.07Z"/><path class="cls-1" d="M146.49,129.4a8.92,8.92,0,0,0-2.35-.26,5.77,5.77,0,0,0-4.79,2.08,7.9,7.9,0,0,0-1.66,5.09v55.47H132.8V136.7a15.19,15.19,0,0,1,.72-4.79,10.36,10.36,0,0,1,2.15-3.78,9.64,9.64,0,0,1,3.55-2.48,12.67,12.67,0,0,1,4.92-.88,15.49,15.49,0,0,1,2.28.16,10.59,10.59,0,0,1,2,.49Z"/><path class="cls-1" d="M152.16,102.93q0-3.25,3.13-3.26a3.34,3.34,0,0,1,2.38.82,3.19,3.19,0,0,1,.88,2.44,3,3,0,0,1-3.26,3.07,2.93,2.93,0,0,1-2.31-.92A3.07,3.07,0,0,1,152.16,102.93Zm.65,88.85V125.42h4.89v66.36Z"/><path class="cls-1" d="M167.35,89.83h4.89v37.09a12,12,0,0,1,2.8-1.07,15.36,15.36,0,0,1,3.91-.43h11v55.74a15,15,0,0,1-.72,4.72,10.36,10.36,0,0,1-2.15,3.78,9.94,9.94,0,0,1-3.55,2.51,12.17,12.17,0,0,1-4.86.92,12.3,12.3,0,0,1-4.92-.92,9.94,9.94,0,0,1-3.55-2.51,10.22,10.22,0,0,1-2.15-3.78,15,15,0,0,1-.72-4.72Zm4.89,91.78a7.73,7.73,0,0,0,1.66,5,5.82,5.82,0,0,0,4.79,2.06,5.75,5.75,0,0,0,4.73-2.06,7.73,7.73,0,0,0,1.66-5V129.79h-6.39a7,7,0,0,0-3.71.81,5.85,5.85,0,0,0-1.93,1.86,5,5,0,0,0-.71,2.09c-.07.69-.1,1.17-.1,1.43Z"/><path class="cls-1" d="M221.39,125.42v54.5a18.42,18.42,0,0,1-.72,5.28,11.79,11.79,0,0,1-2.15,4.17,9.89,9.89,0,0,1-3.55,2.74,11.68,11.68,0,0,1-4.92,1,12.86,12.86,0,0,1-4.92-.88,9.51,9.51,0,0,1-3.53-2.48,10.82,10.82,0,0,1-2.11-3.78,15.23,15.23,0,0,1-.72-4.79V125.42h4.89v56.13a7.88,7.88,0,0,0,1.66,5.08,5.78,5.78,0,0,0,4.79,2.09,5.43,5.43,0,0,0,4.73-2.38,9.82,9.82,0,0,0,1.66-5.77V125.42Z"/><path class="cls-1" d="M175.43,121a1.12,1.12,0,0,1,.32-.77,1.16,1.16,0,0,1,.9-.35,1.22,1.22,0,0,1,.92.35,1.15,1.15,0,0,1,0,1.61,1.25,1.25,0,0,1-.92.33,1.2,1.2,0,0,1-.86-.33A1.09,1.09,0,0,1,175.43,121Z"/><path class="cls-1" d="M182.87,118a3,3,0,0,0,.67,2,2.29,2.29,0,0,0,1.88.81,2.12,2.12,0,0,0,1.85-.93,3.85,3.85,0,0,0,.65-2.25l1.89-.26a7.51,7.51,0,0,1-.28,2.07,4.75,4.75,0,0,1-.84,1.63,4,4,0,0,1-1.39,1.07,4.68,4.68,0,0,1-1.93.38,5,5,0,0,1-1.92-.34,3.63,3.63,0,0,1-1.38-1,4.21,4.21,0,0,1-.83-1.48,5.87,5.87,0,0,1-.28-1.87V100.76a5.79,5.79,0,0,1,.28-1.85,4.23,4.23,0,0,1,.84-1.48,3.83,3.83,0,0,1,1.39-1,5,5,0,0,1,1.93-.34h4.41v7.24H187.9V97.82h-2.5a2.28,2.28,0,0,0-1.88.82,3.11,3.11,0,0,0-.65,2Z"/><path class="cls-1" d="M201.2,117.43a7,7,0,0,1-.28,2.06,4.63,4.63,0,0,1-.84,1.64,4,4,0,0,1-1.39,1.07,4.6,4.6,0,0,1-1.92.38,5,5,0,0,1-1.93-.35,3.68,3.68,0,0,1-1.37-1,4.06,4.06,0,0,1-.83-1.48,5.93,5.93,0,0,1-.28-1.88V100.25a5.79,5.79,0,0,1,.28-1.85,3.94,3.94,0,0,1,.84-1.48,3.75,3.75,0,0,1,1.39-1,5,5,0,0,1,1.92-.34h4.41Zm-6.93.64a3.08,3.08,0,0,0,.65,2,2.24,2.24,0,0,0,1.87.82,2.12,2.12,0,0,0,1.85-.93,3.86,3.86,0,0,0,.65-2.26V97.31h-2.5a2.26,2.26,0,0,0-1.87.82,3.11,3.11,0,0,0-.65,2Z"/><path class="cls-1" d="M213.41,122.07h-1.78V100.63a3,3,0,0,0-.64-2,2.27,2.27,0,0,0-1.86-.76h-2.57v24.25h-1.91V96.12h4.41a5,5,0,0,1,2,.39,3.65,3.65,0,0,1,1.43,1.06,4.29,4.29,0,0,1,1.47-1,4.9,4.9,0,0,1,2-.4h4.43v25.95h-1.91V97.82h-2.6a2.34,2.34,0,0,0-1.88.76,3,3,0,0,0-.65,2Z"/></svg>