<svg xmlns="http://www.w3.org/2000/svg" id="Layer_1" data-name="Layer 1" viewBox="0.01 0.01 214.08 217.87"><defs><style>.cls-1{fill:#fff;}</style></defs><path class="cls-1" d="M205.64,141.52l-.34-3.7a.28.28,0,0,0-.15-.23.31.31,0,0,0-.28,0l-51.51,30.13c-14.27,7.45-21.82,20.87-19.7,35,.79,5.25,3.11,9.88,5.34,14.36q.63,1.24,1.23,2.49a19.62,19.62,0,0,1,2.38,8c0,4.53-4.1,7.18-8.49,10-1,.66-2.08,1.34-3,2l-9.83,6.93-9.82-6.93c-1-.68-2-1.36-3.05-2-4.39-2.8-8.53-5.45-8.48-10a19.57,19.57,0,0,1,2.38-8c.39-.83.82-1.66,1.22-2.49,2.25-4.48,4.56-9.11,5.34-14.37,2.12-14.15-5.39-27.55-19.58-35L37.64,137.59a.28.28,0,0,0-.43.22l-.34,3.7c-.07.81-1.7,20.05,11.69,31.13,9.82,8.11,24.85,9.48,44.67,4,8.14,6.64,11.82,15.6,10.38,25.26-.67,4.42-2.7,8.48-4.85,12.78-.42.85-.85,1.7-1.26,2.54a24.54,24.54,0,0,0-2.91,10.29c-.09,7.47,6,11.38,10.93,14.5l.14.08c1,.62,1.86,1.19,2.71,1.8l12.72,9a.3.3,0,0,0,.16.05.34.34,0,0,0,.17-.05l12.71-9c.86-.62,1.79-1.2,2.76-1.82l.08-.05c4.91-3.13,11-7,10.94-14.5A24.64,24.64,0,0,0,145,217.27c-.41-.85-.85-1.7-1.28-2.56-2.15-4.29-4.18-8.35-4.83-12.77-1.45-9.65,2.24-18.61,10.4-25.26,19.82,5.44,34.84,4.07,44.66-4C207.33,161.57,205.71,142.34,205.64,141.52Zm-5.29,4.85c-.34,5.79-2.11,15.87-9.81,22.22s-19.56,7.73-35.32,4.13l.7-.37Zm-113.64,26,.58.31c-15.75,3.6-27.63,2.21-35.32-4.13s-9.47-16.44-9.8-22.22Z" transform="translate(-14.69 -35.06)"/><circle class="cls-1" cx="149.44" cy="52.53" r="6.83"/><circle class="cls-1" cx="147.44" cy="17.64" r="6.83"/><circle class="cls-1" cx="185.17" cy="6.84" r="6.83"/><circle class="cls-1" cx="207.26" cy="27.38" r="6.83"/><polygon class="cls-1" points="206.02 26.34 196.07 62.38 195.84 62.59 184.5 43.89 187.29 6.71 183.09 6.39 180.57 40.05 149.15 16.42 146.62 19.79 180.34 45.15 192.68 65.51 168.42 87.92 170.08 65.83 170.05 65.82 170.11 65.74 150.39 50.92 147.86 54.29 165.71 67.71 163.92 91.67 123.07 109.34 122.83 109.34 122.76 109.48 122.73 109.5 122.75 109.52 114.8 125.13 119.21 125.13 125.4 112.97 167.74 94.65 167.63 94.43 167.94 94.45 167.94 94.43 167.97 94.46 199.4 65.42 199.49 65.44 209.97 27.51 206.02 26.34"/><circle class="cls-1" cx="64.66" cy="52.85" r="6.83"/><circle class="cls-1" cx="66.66" cy="17.98" r="6.83"/><circle class="cls-1" cx="28.93" cy="7.16" r="6.83"/><circle class="cls-1" cx="6.84" cy="27.71" r="6.83"/><polygon class="cls-1" points="8.07 26.69 18.03 62.72 18.27 62.94 29.59 44.23 26.81 7.04 31.01 6.74 33.52 40.39 64.95 16.76 67.48 20.13 33.75 45.49 21.42 65.85 45.68 88.26 44.03 66.17 44.06 66.16 44 66.08 63.7 51.26 66.23 54.63 48.39 68.05 50.19 92.01 91.03 109.69 91.27 109.69 91.34 109.82 91.37 109.83 91.36 109.85 99.3 125.47 94.88 125.47 88.7 113.31 46.35 94.98 46.47 94.77 46.17 94.79 46.17 94.77 46.14 94.8 14.69 65.76 14.61 65.78 4.14 27.85 8.07 26.69"/></svg>