<svg xmlns="http://www.w3.org/2000/svg" xmlns:xlink="http://www.w3.org/1999/xlink" version="1.1" id="Layer_1" x="0px" y="0px" style="enable-background:new 0 0 244.4 288;" xml:space="preserve" viewBox="17.3 101.7 209.6 67.7">
<style type="text/css">
	.st0{fill:#343D46;}
	.st1{fill:#FFFFFF;}
</style>
<g>
	<g>
		<path class="st1" d="M32.1,124.7v17.5c0,1.1-0.2,2.2-0.5,3.1c-0.3,0.9-0.8,1.8-1.4,2.4c-0.6,0.7-1.4,1.2-2.3,1.6    c-0.9,0.4-2,0.6-3.1,0.6h-4.2v11.2c0,1.3,0.4,2.4,1.1,3.3s1.8,1.3,3.1,1.3c1.3,0,2.3-0.5,3.1-1.5c0.7-1,1.1-2.3,1.1-3.7L32,160    c0,1.2-0.2,2.3-0.5,3.4c-0.3,1-0.8,1.9-1.4,2.7c-0.6,0.8-1.4,1.4-2.3,1.8c-0.9,0.4-2,0.7-3.1,0.7c-1.2,0-2.3-0.2-3.2-0.6    c-0.9-0.4-1.7-0.9-2.3-1.6c-0.6-0.7-1.1-1.5-1.4-2.4c-0.3-0.9-0.5-2-0.5-3.1v-28.4c0-1.1,0.2-2.2,0.5-3.1c0.3-0.9,0.8-1.8,1.4-2.4    c0.6-0.7,1.4-1.2,2.3-1.6c0.9-0.4,2-0.6,3.2-0.6H32.1z M24.8,127.6c-1.4,0-2.4,0.5-3.1,1.4c-0.7,0.9-1.1,2-1.1,3.3v14.9h4.2    c1.3,0,2.3-0.4,3.1-1.3c0.7-0.9,1.1-2,1.1-3.3v-14.9H24.8z"/>
		<path class="st1" d="M37.1,167.7v-66h3.2v66H37.1z"/>
		<path class="st1" d="M65.8,108.9v3.2c0,3.4-0.1,6.4-0.3,9.1c-0.2,2.7-0.5,5.1-1,7.3c-0.4,2.2-1,4.1-1.7,5.7    c-0.7,1.7-1.5,3.1-2.5,4.4l6.7,29.1h-3.4l-5.9-26.4c-1,0.9-2.2,1.7-3.4,2.4c-1.2,0.7-2.6,1.4-4.1,2v21.9H47v-58.8h3.2v33.4    c0.8-0.3,1.6-0.7,2.6-1.2c0.9-0.5,1.8-1.1,2.8-1.9c0.9-0.8,1.8-1.8,2.7-3s1.6-2.8,2.3-4.6c0.6-1.8,1.2-4.1,1.6-6.7    c0.4-2.6,0.6-5.7,0.6-9.2v-6.8H65.8z"/>
		<path class="st1" d="M70.4,167.7v-17.5c0-1.1,0.2-2.2,0.5-3.1c0.3-0.9,0.8-1.8,1.4-2.4c0.6-0.7,1.4-1.2,2.3-1.6    c0.9-0.4,2-0.6,3.1-0.6h4.2v-11.2c0-1.3-0.4-2.4-1.1-3.3c-0.7-0.9-1.8-1.3-3.1-1.3c-1.3,0-2.3,0.5-3.1,1.5c-0.7,1-1.1,2.3-1.1,3.7    l-3.1,0.5c0-1.2,0.2-2.3,0.5-3.4c0.3-1,0.8-1.9,1.4-2.7c0.6-0.8,1.4-1.4,2.3-1.8c0.9-0.4,2-0.7,3.1-0.7c1.2,0,2.3,0.2,3.2,0.6    c0.9,0.4,1.7,0.9,2.3,1.6c0.6,0.7,1.1,1.5,1.4,2.4c0.3,0.9,0.5,2,0.5,3.1V160c0,1.1-0.2,2.2-0.5,3.1c-0.3,0.9-0.8,1.8-1.4,2.4    c-0.6,0.7-1.4,1.2-2.3,1.6c-0.9,0.4-2,0.6-3.2,0.6H70.4z M77.7,164.9c1.3,0,2.4-0.4,3.1-1.3c0.7-0.9,1.1-2,1.1-3.3v-14.9h-4.2    c-1.3,0-2.3,0.4-3.1,1.3c-0.7,0.9-1.1,2-1.1,3.3v14.9H77.7z"/>
		<path class="st1" d="M99.4,127.3c-0.4-0.1-0.9-0.2-1.5-0.2c-1.3,0-2.4,0.5-3.1,1.4c-0.7,0.9-1.1,2-1.1,3.3v35.9h-3.2V132    c0-1.1,0.2-2.2,0.5-3.1c0.3-0.9,0.8-1.8,1.4-2.4c0.6-0.7,1.4-1.2,2.3-1.6c0.9-0.4,2-0.6,3.2-0.6c0.5,0,1,0,1.5,0.1    c0.5,0.1,0.9,0.2,1.3,0.3L99.4,127.3z"/>
		<path class="st1" d="M103,110.2c0-1.4,0.7-2.1,2-2.1c0.6,0,1.2,0.2,1.5,0.5c0.4,0.4,0.6,0.9,0.6,1.6c0,0.5-0.2,1-0.5,1.4    c-0.4,0.4-0.9,0.6-1.6,0.6c-0.6,0-1.1-0.2-1.5-0.6C103.2,111.2,103,110.7,103,110.2z M103.5,167.7v-43h3.2v43H103.5z"/>
		<path class="st1" d="M112.9,101.7h3.2v24c0.5-0.3,1.1-0.5,1.8-0.7c0.7-0.2,1.5-0.3,2.5-0.3h7.1v36.1c0,1.1-0.2,2.1-0.5,3.1    c-0.3,0.9-0.8,1.8-1.4,2.4c-0.6,0.7-1.4,1.2-2.3,1.6c-0.9,0.4-2,0.6-3.1,0.6c-1.2,0-2.3-0.2-3.2-0.6c-0.9-0.4-1.7-0.9-2.3-1.6    c-0.6-0.7-1.1-1.5-1.4-2.4c-0.3-0.9-0.5-2-0.5-3.1V101.7z M116,161.1c0,1.3,0.4,2.4,1.1,3.3c0.7,0.9,1.8,1.3,3.1,1.3    c1.3,0,2.3-0.4,3.1-1.3c0.7-0.9,1.1-2,1.1-3.3v-33.6h-4.1c-1,0-1.8,0.2-2.4,0.5c-0.6,0.4-1,0.8-1.2,1.2c-0.3,0.5-0.4,0.9-0.5,1.4    c0,0.5-0.1,0.8-0.1,0.9V161.1z"/>
		<path class="st1" d="M147.9,124.7V160c0,1.2-0.2,2.4-0.5,3.4c-0.3,1-0.8,1.9-1.4,2.7c-0.6,0.8-1.4,1.3-2.3,1.8    c-0.9,0.4-2,0.6-3.2,0.6c-1.2,0-2.3-0.2-3.2-0.6c-0.9-0.4-1.7-0.9-2.3-1.6c-0.6-0.7-1.1-1.5-1.4-2.4c-0.3-0.9-0.5-2-0.5-3.1v-36.1    h3.2v36.3c0,1.3,0.4,2.4,1.1,3.3c0.7,0.9,1.8,1.3,3.1,1.3c1.3,0,2.3-0.5,3.1-1.5c0.7-1,1.1-2.3,1.1-3.7v-35.7H147.9z"/>
	</g>
	<g>
		<path class="st1" d="M150.5,166.7c0-0.5,0.2-0.9,0.5-1.3c0.4-0.4,0.9-0.6,1.5-0.6s1.2,0.2,1.6,0.6c0.4,0.4,0.6,0.8,0.6,1.3    c0,0.6-0.2,1.1-0.6,1.4c-0.4,0.4-0.9,0.6-1.6,0.6c-0.6,0-1.1-0.2-1.5-0.6C150.7,167.8,150.5,167.3,150.5,166.7z"/>
		<path class="st1" d="M163.1,161.6c0,1.3,0.4,2.5,1.1,3.4c0.8,0.9,1.8,1.4,3.2,1.4c1.4,0,2.4-0.5,3.1-1.6c0.7-1.1,1.1-2.3,1.1-3.8    l3.2-0.4c0,1.3-0.2,2.4-0.5,3.5c-0.3,1.1-0.8,2-1.4,2.8c-0.6,0.8-1.4,1.4-2.4,1.8c-0.9,0.4-2,0.7-3.3,0.7c-1.2,0-2.3-0.2-3.3-0.6    c-0.9-0.4-1.7-0.9-2.3-1.6c-0.6-0.7-1.1-1.5-1.4-2.5c-0.3-1-0.5-2-0.5-3.2v-29c0-1.1,0.2-2.2,0.5-3.1s0.8-1.8,1.4-2.5    c0.6-0.7,1.4-1.3,2.4-1.6c0.9-0.4,2-0.6,3.3-0.6h7.5v12.3h-3.3v-9.4h-4.2c-1.4,0-2.4,0.5-3.2,1.4c-0.7,0.9-1.1,2.1-1.1,3.4V161.6z    "/>
		<path class="st1" d="M194.3,160.6c0,1.3-0.2,2.4-0.5,3.5c-0.3,1.1-0.8,2-1.4,2.8c-0.6,0.8-1.4,1.4-2.4,1.8c-0.9,0.4-2,0.7-3.3,0.7    c-1.2,0-2.3-0.2-3.3-0.6c-0.9-0.4-1.7-0.9-2.3-1.6c-0.6-0.7-1.1-1.5-1.4-2.5c-0.3-1-0.5-2-0.5-3.2v-30c0-1.1,0.2-2.2,0.5-3.1    c0.3-1,0.8-1.8,1.4-2.5c0.6-0.7,1.4-1.3,2.4-1.6c0.9-0.4,2-0.6,3.3-0.6h7.5V160.6z M182.5,161.7c0,1.3,0.4,2.5,1.1,3.4    c0.7,0.9,1.8,1.4,3.2,1.4c1.4,0,2.4-0.5,3.1-1.6s1.1-2.3,1.1-3.8v-34.6h-4.2c-1.4,0-2.4,0.5-3.2,1.4c-0.7,0.9-1.1,2.1-1.1,3.4    V161.7z"/>
		<path class="st1" d="M215.1,168.5h-3v-36.5c0-1.5-0.4-2.6-1.1-3.5c-0.7-0.9-1.8-1.3-3.2-1.3h-4.4v41.2h-3.3v-44.1h7.5    c1.3,0,2.5,0.2,3.5,0.7c1,0.4,1.8,1,2.4,1.8c0.6-0.7,1.5-1.3,2.5-1.8c1-0.5,2.2-0.7,3.4-0.7h7.5v44.1h-3.3v-41.2h-4.4    c-1.4,0-2.4,0.4-3.2,1.3c-0.7,0.9-1.1,2-1.1,3.5V168.5z"/>
	</g>
</g>
</svg>