<svg id="Layer_1" data-name="Layer 1" xmlns="http://www.w3.org/2000/svg" viewBox="0 0 222.31 227.22"><defs><style>.cls-1{fill:#343d46;}.cls-2{fill:#fff;}</style></defs><rect class="cls-1" width="222.31" height="227.22" rx="21.45"/><path class="cls-2" d="M201.49,141.65l-.32-3.49A.26.26,0,0,0,201,138a.27.27,0,0,0-.26,0L152.1,166.42c-13.48,7-20.62,19.72-18.61,33.09.74,5,2.93,9.33,5,13.57.4.78.79,1.56,1.16,2.35a18.45,18.45,0,0,1,2.25,7.59c.05,4.28-3.87,6.78-8,9.43-1,.62-2,1.26-2.87,1.9l-9.29,6.54-9.28-6.54c-.92-.65-1.92-1.29-2.88-1.9-4.15-2.65-8.06-5.15-8-9.43a18.55,18.55,0,0,1,2.24-7.59c.38-.79.78-1.57,1.16-2.35,2.13-4.24,4.31-8.61,5.05-13.58,2-13.37-5.09-26-18.5-33L42.76,138a.27.27,0,0,0-.26,0,.27.27,0,0,0-.15.21L42,141.64c-.07.77-1.61,19,11,29.42,9.28,7.67,23.48,8.95,42.2,3.81,7.7,6.28,11.18,14.75,9.81,23.88-.63,4.17-2.54,8-4.58,12.07-.39.8-.8,1.61-1.19,2.4a23.23,23.23,0,0,0-2.75,9.72c-.09,7.06,5.69,10.75,10.33,13.7l.13.08c.9.58,1.76,1.12,2.56,1.69l12,8.47a.3.3,0,0,0,.15.05.3.3,0,0,0,.16-.05l12-8.47c.82-.58,1.69-1.13,2.61-1.71l.07,0c4.64-3,10.41-6.65,10.34-13.7a23.19,23.19,0,0,0-2.75-9.72c-.39-.8-.8-1.61-1.2-2.42-2-4.06-3.95-7.89-4.57-12.06-1.37-9.12,2.12-17.59,9.82-23.88,18.73,5.14,32.92,3.86,42.19-3.81C203.09,160.6,201.56,142.43,201.49,141.65Zm-5,4.59c-.32,5.47-2,15-9.27,21s-18.48,7.3-33.37,3.91c.21-.12.43-.24.66-.35ZM89.13,170.85l.55.29c-14.88,3.4-26.11,2.1-33.37-3.9s-9-15.53-9.27-21Z" transform="translate(-11.06 -30.39)"/><circle class="cls-2" cx="151.21" cy="60.31" r="6.46"/><circle class="cls-2" cx="149.32" cy="27.35" r="6.46"/><circle class="cls-2" cx="184.97" cy="17.14" r="6.46"/><circle class="cls-2" cx="205.84" cy="36.55" r="6.46"/><polygon class="cls-2" points="204.67 35.57 195.27 69.62 195.05 69.82 184.34 52.15 186.97 17.02 183 16.71 180.62 48.52 150.94 26.19 148.55 29.38 180.41 53.34 192.06 72.58 169.14 93.75 170.71 72.88 170.68 72.87 170.74 72.79 152.11 58.79 149.72 61.98 166.58 74.65 164.89 97.3 126.3 113.99 126.06 113.99 126 114.12 125.98 114.13 125.99 114.15 118.48 128.91 122.65 128.91 128.5 117.41 168.5 100.1 168.39 99.9 168.68 99.92 168.68 99.9 168.71 99.93 198.42 72.49 198.49 72.51 208.4 36.67 204.67 35.57"/><circle class="cls-2" cx="71.11" cy="60.62" r="6.46"/><circle class="cls-2" cx="73" cy="27.66" r="6.46"/><circle class="cls-2" cx="37.35" cy="17.45" r="6.46"/><circle class="cls-2" cx="16.47" cy="36.86" r="6.46"/><polygon class="cls-2" points="17.64 35.9 27.05 69.94 27.27 70.15 37.97 52.47 35.35 17.34 39.32 17.05 41.69 48.84 71.38 26.51 73.77 29.7 41.9 53.66 30.25 72.9 53.17 94.07 51.61 73.2 51.64 73.19 51.58 73.11 70.2 59.11 72.59 62.3 55.74 74.97 57.43 97.61 96.02 114.32 96.25 114.32 96.31 114.44 96.34 114.45 96.33 114.47 103.84 129.23 99.66 129.23 93.83 117.73 53.81 100.42 53.92 100.22 53.64 100.24 53.64 100.22 53.61 100.25 23.89 72.81 23.82 72.83 13.92 36.99 17.64 35.9"/></svg>