<svg xmlns="http://www.w3.org/2000/svg" id="Layer_1" data-name="Layer 1" viewBox="5.88 108.31 221.38 71.43"><defs><style>.cls-1{fill:#fff;}</style></defs><path class="cls-1" d="M67.64,142.75l-.11-1.2a.1.1,0,0,0-.14-.07l-16.66,9.74c-4.61,2.41-7,6.76-6.37,11.33a15.93,15.93,0,0,0,1.73,4.65c.14.26.27.53.4.8a6.44,6.44,0,0,1,.77,2.6c0,1.46-1.33,2.32-2.75,3.23-.33.21-.67.43-1,.65l-3.18,2.24-3.18-2.24c-.31-.22-.65-.44-1-.65-1.42-.91-2.76-1.77-2.75-3.23a6.44,6.44,0,0,1,.77-2.6l.4-.8a15.65,15.65,0,0,0,1.73-4.65C37,158,34.59,153.64,30,151.24l-16.69-9.76a.1.1,0,0,0-.09,0,.1.1,0,0,0-.05.08l-.11,1.19c0,.27-.55,6.49,3.78,10.07,3.17,2.63,8,3.07,14.45,1.31a8.63,8.63,0,0,1,3.35,8.17,14.11,14.11,0,0,1-1.56,4.13c-.14.28-.28.55-.41.83a7.76,7.76,0,0,0-.94,3.32c0,2.42,1.95,3.68,3.53,4.69l.05,0c.3.2.6.38.87.58l4.12,2.9.05,0,0,0,4.12-2.9c.27-.2.57-.39.89-.59h0C47,174.25,49,173,49,170.58a7.9,7.9,0,0,0-.94-3.33c-.13-.28-.27-.55-.41-.83a14.14,14.14,0,0,1-1.57-4.13,8.65,8.65,0,0,1,3.37-8.17c6.41,1.76,11.27,1.32,14.44-1.31C68.19,149.23,67.67,143,67.64,142.75Zm-1.71,1.57c-.11,1.87-.68,5.13-3.17,7.18s-6.33,2.5-11.42,1.34l.22-.12Zm-36.75,8.42.19.1c-5.1,1.17-8.94.72-11.43-1.33s-3.06-5.32-3.17-7.19Z"/><circle class="cls-1" cx="54.22" cy="125.3" r="2.21"/><circle class="cls-1" cx="53.57" cy="114.02" r="2.21"/><circle class="cls-1" cx="65.77" cy="110.52" r="2.21"/><circle class="cls-1" cx="72.92" cy="117.17" r="2.21"/><polygon class="cls-1" points="72.52 116.83 69.3 128.49 69.22 128.56 65.56 122.51 66.46 110.48 65.1 110.38 64.29 121.27 54.12 113.63 53.31 114.72 64.21 122.92 68.2 129.5 60.35 136.75 60.89 129.61 60.88 129.6 60.9 129.58 54.52 124.78 53.71 125.87 59.48 130.21 58.9 137.97 45.69 143.68 45.61 143.68 45.59 143.72 45.58 143.73 45.58 143.74 43.02 148.79 44.44 148.79 46.44 144.85 60.14 138.93 60.1 138.86 60.2 138.86 60.2 138.86 60.21 138.87 70.38 129.47 70.4 129.48 73.79 117.21 72.52 116.83"/><circle class="cls-1" cx="26.8" cy="125.41" r="2.21"/><circle class="cls-1" cx="27.44" cy="114.13" r="2.21"/><circle class="cls-1" cx="15.24" cy="110.63" r="2.21"/><circle class="cls-1" cx="8.09" cy="117.28" r="2.21"/><polygon class="cls-1" points="8.49 116.95 11.71 128.6 11.79 128.67 15.45 122.62 14.56 110.59 15.91 110.49 16.73 121.38 26.89 113.73 27.71 114.83 16.8 123.03 12.81 129.61 20.66 136.86 20.12 129.72 20.13 129.71 20.11 129.69 26.49 124.89 27.31 125.98 21.54 130.32 22.11 138.07 35.33 143.79 35.4 143.79 35.42 143.83 35.44 143.84 35.43 143.84 38 148.9 36.57 148.9 34.57 144.96 20.88 139.03 20.91 138.97 20.82 138.97 20.82 138.97 20.81 138.98 10.63 129.58 10.61 129.59 7.22 117.32 8.49 116.95"/><path class="cls-1" d="M103.62,132.92v18.65a10.54,10.54,0,0,1-.5,3.31,7.13,7.13,0,0,1-1.48,2.61,6.7,6.7,0,0,1-2.46,1.72,8.79,8.79,0,0,1-3.36.61H91.36v11.94a5.41,5.41,0,0,0,1.15,3.49,4,4,0,0,0,3.31,1.42,3.76,3.76,0,0,0,3.27-1.62,6.69,6.69,0,0,0,1.15-4l3.33-.5a12.6,12.6,0,0,1-.49,3.61,8.34,8.34,0,0,1-1.47,2.88A6.78,6.78,0,0,1,99.18,179a7.79,7.79,0,0,1-3.36.7,8.56,8.56,0,0,1-3.4-.63A7,7,0,0,1,90,177.32a7.24,7.24,0,0,1-1.49-2.61,10.47,10.47,0,0,1-.5-3.27V141.16a10.59,10.59,0,0,1,.5-3.31A7.15,7.15,0,0,1,90,135.24a6.75,6.75,0,0,1,2.45-1.72,8.93,8.93,0,0,1,3.4-.6Zm-7.8,3a4,4,0,0,0-3.31,1.44,5.49,5.49,0,0,0-1.15,3.51V156.8h4.46a4,4,0,0,0,3.27-1.4,5.32,5.32,0,0,0,1.15-3.51V135.94Z"/><path class="cls-1" d="M109,178.79V108.31h3.38v70.48Z"/><path class="cls-1" d="M139.62,116v3.42q0,5.41-.34,9.71a64.7,64.7,0,0,1-1,7.75,32.26,32.26,0,0,1-1.83,6.11,21.85,21.85,0,0,1-2.7,4.73l7.16,31h-3.6L131,150.62a23.47,23.47,0,0,1-3.64,2.6,38.66,38.66,0,0,1-4.37,2.13v23.44h-3.39V116H123v35.64c.84-.36,1.75-.79,2.74-1.28a14.62,14.62,0,0,0,3-2,17.25,17.25,0,0,0,2.83-3.22,20.06,20.06,0,0,0,2.41-4.91,39.67,39.67,0,0,0,1.67-7.12,66.87,66.87,0,0,0,.63-9.85V116Z"/><path class="cls-1" d="M144.53,178.79V160.13a10.59,10.59,0,0,1,.5-3.31,7.13,7.13,0,0,1,1.48-2.61,6.78,6.78,0,0,1,2.46-1.72,8.83,8.83,0,0,1,3.36-.6h4.46V140a5.42,5.42,0,0,0-1.15-3.5,4,4,0,0,0-3.31-1.42,3.76,3.76,0,0,0-3.27,1.63,6.64,6.64,0,0,0-1.15,4l-3.33.5a12.65,12.65,0,0,1,.49-3.61,8.34,8.34,0,0,1,1.47-2.88,6.78,6.78,0,0,1,2.43-1.92,7.82,7.82,0,0,1,3.36-.69,8.56,8.56,0,0,1,3.4.63,7,7,0,0,1,2.46,1.73,7.3,7.3,0,0,1,1.48,2.61,10.47,10.47,0,0,1,.5,3.27v30.28a10.54,10.54,0,0,1-.5,3.31,7.26,7.26,0,0,1-1.48,2.62,7,7,0,0,1-2.46,1.71,8.93,8.93,0,0,1-3.4.61Zm7.8-3a4,4,0,0,0,3.31-1.45,5.49,5.49,0,0,0,1.15-3.51V154.9h-4.46a4,4,0,0,0-3.27,1.4,5.33,5.33,0,0,0-1.15,3.52v16Z"/><path class="cls-1" d="M175.49,135.66a6.38,6.38,0,0,0-1.63-.18,4,4,0,0,0-3.31,1.45,5.49,5.49,0,0,0-1.15,3.51v38.35H166V140.71a10.59,10.59,0,0,1,.5-3.31,7.15,7.15,0,0,1,1.49-2.61,6.75,6.75,0,0,1,2.45-1.72,8.93,8.93,0,0,1,3.4-.6,10.14,10.14,0,0,1,1.58.11,7,7,0,0,1,1.4.34Z"/><path class="cls-1" d="M179.41,117.37q0-2.25,2.16-2.25a2.33,2.33,0,0,1,1.64.56,2.45,2.45,0,0,1,0,3.18,2.16,2.16,0,0,1-1.69.63,2,2,0,0,1-1.6-.63A2.14,2.14,0,0,1,179.41,117.37Zm.45,61.42V132.92h3.38v45.87Z"/><path class="cls-1" d="M189.91,108.31h3.37V134a8.73,8.73,0,0,1,1.94-.74,10.66,10.66,0,0,1,2.71-.29h7.61v38.52a10.47,10.47,0,0,1-.49,3.27,7.39,7.39,0,0,1-1.49,2.61,7,7,0,0,1-2.46,1.74,8.38,8.38,0,0,1-3.35.63,8.57,8.57,0,0,1-3.41-.63,7,7,0,0,1-2.45-1.74,7.24,7.24,0,0,1-1.49-2.61,10.47,10.47,0,0,1-.49-3.27Zm3.37,63.45a5.41,5.41,0,0,0,1.15,3.49,4,4,0,0,0,3.32,1.42,4,4,0,0,0,3.26-1.42,5.35,5.35,0,0,0,1.15-3.49V135.94h-4.41a4.81,4.81,0,0,0-2.57.56,3.81,3.81,0,0,0-1.33,1.28,3.45,3.45,0,0,0-.5,1.44c0,.49-.07.82-.07,1Z"/><path class="cls-1" d="M227.26,132.92v37.66a12.73,12.73,0,0,1-.5,3.65,8.15,8.15,0,0,1-1.48,2.89,6.77,6.77,0,0,1-2.46,1.89,8.06,8.06,0,0,1-3.4.68,8.89,8.89,0,0,1-3.4-.61,6.64,6.64,0,0,1-2.44-1.71,7.53,7.53,0,0,1-1.46-2.62,10.54,10.54,0,0,1-.5-3.31V132.92H215v38.79a5.53,5.53,0,0,0,1.15,3.52,4,4,0,0,0,3.31,1.44,3.75,3.75,0,0,0,3.27-1.65,6.74,6.74,0,0,0,1.15-4V132.92Z"/></svg>