<svg xmlns="http://www.w3.org/2000/svg" xmlns:xlink="http://www.w3.org/1999/xlink" version="1.1" id="Layer_1" x="0px" y="0px" style="enable-background:new 0 0 244.44 288;" xml:space="preserve" viewBox="13.84 34.98 214.33 215.33">
<style type="text/css">
	.st0{fill:#63ADF2;}
</style>
<path class="st0" d="M202.88,141.57l-0.33-3.61c-0.01-0.09-0.06-0.18-0.15-0.22c-0.08-0.04-0.18-0.04-0.27,0.01l-50.27,29.4  c-13.92,7.27-21.29,20.37-19.22,34.18c0.77,5.12,3.03,9.64,5.21,14.01c0.41,0.81,0.81,1.62,1.2,2.43c1.13,2.33,2.29,5.08,2.32,7.84  c0.05,4.42-4,7-8.28,9.74c-1,0.64-2.03,1.3-2.97,1.96l-9.59,6.76l-9.59-6.76c-0.95-0.67-1.98-1.33-2.97-1.96  c-4.29-2.74-8.33-5.32-8.28-9.74c0.03-2.76,1.19-5.52,2.32-7.84c0.39-0.81,0.8-1.62,1.2-2.43c2.19-4.37,4.45-8.89,5.21-14.02  c2.07-13.81-5.26-26.89-19.11-34.12l-50.38-29.46c-0.08-0.05-0.18-0.05-0.27-0.01c-0.08,0.04-0.14,0.13-0.15,0.22l-0.33,3.61  c-0.07,0.79-1.66,19.57,11.41,30.38c9.58,7.92,24.25,9.25,43.59,3.94c7.95,6.48,11.54,15.23,10.13,24.66  c-0.65,4.31-2.63,8.27-4.73,12.47c-0.41,0.83-0.83,1.66-1.23,2.48c-1.38,2.84-2.79,6.26-2.84,10.04  c-0.09,7.29,5.88,11.1,10.67,14.15l0.13,0.08c0.93,0.6,1.82,1.16,2.65,1.75l12.41,8.75c0.05,0.03,0.1,0.05,0.16,0.05  c0.06,0,0.11-0.02,0.16-0.05l12.41-8.75c0.84-0.6,1.74-1.17,2.69-1.77l0.08-0.05c4.79-3.06,10.75-6.87,10.67-14.15  c-0.05-3.79-1.46-7.2-2.84-10.04c-0.4-0.83-0.82-1.66-1.24-2.5c-2.1-4.19-4.08-8.15-4.72-12.46c-1.41-9.42,2.19-18.17,10.15-24.66  c19.34,5.31,34,3.98,43.58-3.94C204.53,161.14,202.95,142.37,202.88,141.57z M197.72,146.31c-0.33,5.65-2.06,15.48-9.57,21.68  c-7.5,6.18-19.09,7.54-34.47,4.03c0.22-0.12,0.45-0.24,0.68-0.36L197.72,146.31z M86.82,171.73c0.19,0.1,0.38,0.2,0.57,0.3  c-15.37,3.51-26.97,2.16-34.47-4.03c-7.51-6.2-9.24-16.04-9.57-21.68L86.82,171.73z"/>
<g>
	<g>
		
			<ellipse transform="matrix(0.7864 -0.6177 0.6177 0.7864 -20.2528 119.2978)" class="st0" cx="162.37" cy="88.93" rx="6.67" ry="6.67"/>
		
			<ellipse transform="matrix(0.7864 -0.6177 0.6177 0.7864 0.3583 110.8199)" class="st0" cx="160.42" cy="54.89" rx="6.67" ry="6.67"/>
		
			<ellipse transform="matrix(0.7864 -0.6177 0.6177 0.7864 14.7447 131.3118)" class="st0" cx="197.24" cy="44.34" rx="6.67" ry="6.67"/>
		
			<ellipse transform="matrix(0.7864 -0.6177 0.6177 0.7864 6.9672 148.9164)" class="st0" cx="218.8" cy="64.38" rx="6.67" ry="6.67"/>
	</g>
	<polygon class="st0" points="217.59,63.38 207.88,98.55 207.65,98.76 196.59,80.51 199.31,44.22 195.21,43.91 192.75,76.76    162.09,53.7 159.62,56.99 192.53,81.74 204.57,101.61 180.89,123.48 182.51,101.92 182.48,101.91 182.54,101.83 163.3,87.37    160.83,90.66 178.25,103.75 176.5,127.14 136.64,144.38 136.4,144.38 136.33,144.52 136.31,144.53 136.32,144.55 128.57,159.79    132.87,159.79 138.91,147.92 180.23,130.04 180.12,129.83 180.42,129.85 180.42,129.83 180.45,129.86 211.13,101.52 211.21,101.54    221.44,64.52  "/>
</g>
<g>
	<g>
		
			<ellipse transform="matrix(0.6177 -0.7864 0.7864 0.6177 -39.7533 96.7481)" class="st0" cx="79.64" cy="89.26" rx="6.67" ry="6.67"/>
		
			<ellipse transform="matrix(0.6177 -0.7864 0.7864 0.6177 -12.2375 85.2711)" class="st0" cx="81.59" cy="55.22" rx="6.67" ry="6.67"/>
		
			<ellipse transform="matrix(0.6177 -0.7864 0.7864 0.6177 -18.0128 52.2791)" class="st0" cx="44.77" cy="44.67" rx="6.67" ry="6.67"/>
		
			<ellipse transform="matrix(0.6177 -0.7864 0.7864 0.6177 -42.0221 42.9835)" class="st0" cx="23.2" cy="64.72" rx="6.67" ry="6.67"/>
	</g>
	<polygon class="st0" points="24.41,63.72 34.13,98.88 34.36,99.1 45.41,80.84 42.7,44.55 46.8,44.25 49.25,77.09 79.92,54.03    82.39,57.32 49.47,82.07 37.44,101.94 61.11,123.81 59.5,102.25 59.53,102.24 59.47,102.16 78.7,87.7 81.17,90.99 63.76,104.08    65.51,127.47 105.37,144.72 105.6,144.72 105.67,144.85 105.7,144.86 105.69,144.88 113.44,160.12 109.13,160.12 103.1,148.25    61.77,130.37 61.88,130.16 61.59,130.18 61.59,130.16 61.56,130.19 30.87,101.85 30.79,101.87 20.57,64.85  "/>
</g>
</svg>